<?xml version="1.0" encoding="UTF-8" standalone="no"?>
<!-- Generator: Adobe Illustrator 16.0.4, SVG Export Plug-In . SVG Version: 6.00 Build 0)  -->

<svg
   xmlns:dc="http://purl.org/dc/elements/1.1/"
   xmlns:cc="http://creativecommons.org/ns#"
   xmlns:rdf="http://www.w3.org/1999/02/22-rdf-syntax-ns#"
   xmlns:svg="http://www.w3.org/2000/svg"
   xmlns="http://www.w3.org/2000/svg"
   xmlns:sodipodi="http://sodipodi.sourceforge.net/DTD/sodipodi-0.dtd"
   xmlns:inkscape="http://www.inkscape.org/namespaces/inkscape"
   version="1.1"
   id="Layer_1"
   x="0px"
   y="0px"
   width="64px"
   height="64px"
   viewBox="0 0 64 64"
   enable-background="new 0 0 64 64"
   xml:space="preserve"
   inkscape:version="0.91 r13725"
   sodipodi:docname="icon.svg"
   inkscape:export-filename="C:\Users\Stephen\Code\FlyWebBrowser\icon512.png"
   inkscape:export-xdpi="720"
   inkscape:export-ydpi="720"><metadata
   id="metadata39"><rdf:RDF><cc:Work
       rdf:about=""><dc:format>image/svg+xml</dc:format><dc:type
         rdf:resource="http://purl.org/dc/dcmitype/StillImage" /><dc:title></dc:title></cc:Work></rdf:RDF></metadata><defs
   id="defs37"><filter
     inkscape:collect="always"
     style="color-interpolation-filters:sRGB"
     id="filter4518"
     x="-0.0444"
     width="1.0888"
     y="-0.0444"
     height="1.0888"><feGaussianBlur
       inkscape:collect="always"
       stdDeviation="1.1438644"
       id="feGaussianBlur4520" /></filter></defs><sodipodi:namedview
   pagecolor="#ffffff"
   bordercolor="#666666"
   borderopacity="1"
   objecttolerance="10"
   gridtolerance="10"
   guidetolerance="10"
   inkscape:pageopacity="0"
   inkscape:pageshadow="2"
   inkscape:window-width="1210"
   inkscape:window-height="654"
   id="namedview35"
   showgrid="false"
   inkscape:zoom="2.6074563"
   inkscape:cx="93.559874"
   inkscape:cy="37.965534"
   inkscape:window-x="482"
   inkscape:window-y="135"
   inkscape:window-maximized="0"
   inkscape:current-layer="Layer_1" />






<circle
   style="opacity:1;fill:#000000;fill-opacity:0.12204727;stroke:none;stroke-width:1.5696274;stroke-linecap:round;stroke-miterlimit:4;stroke-dasharray:none;stroke-dashoffset:0;stroke-opacity:1;filter:url(#filter4518)"
   id="path4185-2"
   cx="32"
   cy="32"
   r="30.915255" /><circle
   style="opacity:1;fill:#ffffff;fill-opacity:1;stroke:none;stroke-width:1.5696274;stroke-linecap:round;stroke-miterlimit:4;stroke-dasharray:none;stroke-dashoffset:0;stroke-opacity:1"
   id="path4185"
   cx="32"
   cy="30.915255"
   r="30.915255" /><g
   id="g4167"
   transform="matrix(0.71319883,0,0,0.71319883,9.177994,9.9271801)"><circle
     id="circle3"
     r="6"
     cy="52"
     cx="32"
     style="fill:#797c80" /><g
     id="g5">
	<path
   id="path7"
   d="M 6.894,15.255 C 4.64,16.802 2.508,18.559 0.533,20.534 L 0.18,20.887 3.716,24.423 4.07,24.069 C 5.691,22.449 7.433,20.997 9.266,19.7 8.126,18.464 7.296,16.943 6.894,15.255 Z"
   inkscape:connector-curvature="0"
   style="fill:#797c80" />
	<path
   id="path9"
   d="M 63.465,20.532 C 55.061,12.128 43.887,7.5 32,7.5 c -2.265,0 -4.504,0.17 -6.703,0.501 0.822,1.44 1.3,3.1 1.312,4.87 1.773,-0.24 3.572,-0.371 5.391,-0.371 10.55,0 20.468,4.108 27.928,11.567 l 0.354,0.354 3.537,-3.535 -0.354,-0.354 z"
   inkscape:connector-curvature="0"
   style="fill:#797c80" />
</g><g
     id="g11">
	<path
   id="path13"
   d="m 16.613,10.94 c 1.103,0 2,0.897 2,2 0,1.103 -0.897,2 -2,2 -1.103,0 -2,-0.897 -2,-2 0,-1.103 0.897,-2 2,-2 m 0,-4 c -3.313,0 -6,2.687 -6,6 0,3.313 2.687,6 6,6 3.313,0 6,-2.687 6,-6 0,-3.313 -2.687,-6 -6,-6 l 0,0 z"
   inkscape:connector-curvature="0"
   style="fill:#797c80" />
</g><g
     id="g15">
	<path
   id="path17"
   d="M 46.492,37.502 C 44.639,35.65 42.49,34.21 40.158,33.197 c 0.031,0.324 0.05,0.652 0.05,0.984 0,1.477 -0.33,2.874 -0.906,4.137 1.329,0.712 2.561,1.623 3.657,2.719 l 0.354,0.354 3.533,-3.535 -0.354,-0.354 z"
   inkscape:connector-curvature="0"
   style="fill:#797c80" />
	<path
   id="path19"
   d="m 20.262,35.207 c -0.972,0.683 -1.9,1.439 -2.758,2.297 l -0.354,0.354 3.536,3.537 0.354,-0.354 c 0.35,-0.35 0.715,-0.679 1.091,-0.99 -1.013,-1.391 -1.685,-3.044 -1.869,-4.844 z"
   inkscape:connector-curvature="0"
   style="fill:#797c80" />
</g><g
     id="g21">
	<path
   id="path23"
   d="m 30.209,32.182 c 1.102,0 1.999,0.897 1.999,2 0,1.103 -0.896,2 -1.999,2 -1.103,0 -2,-0.897 -2,-2 0,-1.103 0.897,-2 2,-2 m 0,-4 c -3.313,0 -6,2.686 -6,6 0,3.312 2.687,6 6,6 3.313,0 5.999,-2.688 5.999,-6 0,-3.315 -2.686,-6 -5.999,-6 l 0,0 z"
   inkscape:connector-curvature="0"
   style="fill:#797c80" />
</g><g
     id="g25">
	<path
   id="path27"
   d="m 32.207,23.716 c 0,-1.497 0.34,-2.912 0.932,-4.188 C 32.76,19.515 32.381,19.5 32,19.5 c -8.681,0 -16.843,3.381 -22.981,9.52 l -0.354,0.354 3.535,3.535 0.354,-0.354 C 17.748,27.36 24.654,24.5 32,24.5 c 0.083,0 0.165,0.005 0.247,0.006 -0.02,-0.261 -0.04,-0.524 -0.04,-0.79 z"
   inkscape:connector-curvature="0"
   style="fill:#797c80" />
	<path
   id="path29"
   d="m 54.98,29.018 c -0.987,-0.987 -2.033,-1.896 -3.119,-2.738 -0.447,1.68 -1.313,3.188 -2.491,4.399 0.717,0.586 1.409,1.21 2.073,1.874 l 0.354,0.354 3.537,-3.535 -0.354,-0.354 z"
   inkscape:connector-curvature="0"
   style="fill:#797c80" />
</g><g
     id="g31">
	<path
   id="path33"
   d="m 42.207,21.716 c 1.103,0 2,0.897 2,2 0,1.103 -0.897,2 -2,2 -1.103,0 -2,-0.897 -2,-2 0,-1.103 0.897,-2 2,-2 m 0,-4 c -3.313,0 -6,2.687 -6,6 0,3.313 2.687,6 6,6 3.313,0 6,-2.687 6,-6 0,-3.313 -2.686,-6 -6,-6 l 0,0 z"
   inkscape:connector-curvature="0"
   style="fill:#797c80" />
</g></g>
</svg>